<?xml version="1.0" encoding="UTF-8"?>
<svg xmlns="http://www.w3.org/2000/svg" width="230" height="85" viewBox="0 0 230 85" fill="none">
  <path d="M61.3948 53.0679L61.3948 83.7046L30.543 83.7046L30.543 53.0679L61.3948 53.0679ZM54.6074 77.1687L54.6074 59.6548L37.3304 59.6548L37.3304 77.1687L54.6074 77.1687Z" fill="white"></path>
  <path d="M75.1756 53.0679L75.1756 83.7046L68.3882 83.7046L68.3882 53.0679L75.1756 53.0679ZM96.3605 53.0679L96.3605 83.7046L89.5731 83.7046L89.5731 59.6548L75.227 59.6548L81.8087 53.1189L96.3605 53.1189L96.3605 53.0679Z" fill="white"></path>
  <path d="M117.597 52.4546C125.67 52.4546 132.457 57.765 132.457 67.6198C132.457 68.2836 132.457 68.8452 132.406 69.8154L108.187 69.8154C108.495 74.8194 112.558 78.1384 117.7 78.1384C122.019 78.1384 124.898 76.1981 126.544 73.4918L131.737 77.1682C128.96 81.5084 124.127 84.2657 117.7 84.2657C108.341 84.2657 101.605 77.6278 101.605 68.3346C101.502 59.3989 108.238 52.4546 117.597 52.4546ZM108.495 64.9646L125.618 64.9646C124.898 60.5733 121.299 58.1735 117.34 58.1735C113.38 58.1735 109.421 60.4201 108.495 64.9646Z" fill="white"></path>
  <path d="M7.04424 13.291L7.04423 43.9277L0.256831 43.9277L0.256836 13.291L7.04424 13.291ZM26.8922 13.291L26.8922 43.9277L20.1048 43.9277L20.1048 19.8269L7.09565 19.8269L13.6774 13.291L26.8922 13.291ZM26.8922 19.8269L33.474 13.291L46.6888 13.291L46.6888 43.9277L39.9014 43.9277L39.9014 19.8269L26.8922 19.8269Z" fill="white"></path>
  <path d="M66.7431 12.6782C71.1652 12.6782 74.8674 14.9249 76.6157 17.3759L76.6157 13.291L83.4031 13.291L83.4031 43.9277L76.6157 43.9277L76.6157 39.8428C74.8674 42.2937 71.1652 44.5404 66.7431 44.5404C58.3103 44.5404 51.8828 37.3918 51.8828 28.6093C51.8828 19.8268 58.3103 12.6782 66.7431 12.6782ZM67.9772 18.8056C62.4753 18.8056 58.7731 23.0947 58.773 28.6093C58.773 34.1239 62.4753 38.4131 67.9772 38.4131C73.4791 38.4131 77.1813 34.1239 77.1813 28.6093C77.1813 23.0947 73.4791 18.8056 67.9772 18.8056Z" fill="white"></path>
  <path d="M111.786 13.2908L111.786 19.8266L97.4402 19.8266L97.4402 37.3406L111.786 37.3406L111.786 43.8765L90.6528 43.8765L90.6528 13.2397L111.786 13.2397L111.786 13.2908Z" fill="white"></path>
  <path d="M124.179 19.8266L124.179 43.8764L117.391 43.8764L117.391 0.42334L124.179 0.423341L124.179 13.2908L145.415 13.2908L145.415 43.9275L138.627 43.9275L138.627 19.8266L124.179 19.8266Z" fill="white"></path>
  <path d="M159.041 13.291L159.041 43.9277L152.253 43.9277L152.253 13.291L159.041 13.291Z" fill="white"></path>
  <path d="M172.718 13.291L172.718 43.9277L165.931 43.9277L165.931 13.291L172.718 13.291ZM193.903 13.291L193.903 43.9277L187.116 43.9277L187.116 19.8269L172.769 19.8269L179.351 13.291L193.903 13.291Z" fill="white"></path>
  <path d="M215.139 12.6782C223.212 12.6782 229.999 17.9886 229.999 27.8434C229.999 28.5072 229.999 29.0689 229.948 30.039L205.729 30.039C206.038 35.043 210.1 38.362 215.242 38.362C219.561 38.362 222.441 36.4217 224.086 33.7154L229.28 37.3918C226.503 41.732 221.669 44.4894 215.242 44.4894C205.884 44.4893 199.148 37.8514 199.148 28.5583C199.045 19.5715 205.781 12.6782 215.139 12.6782ZM206.038 25.1882L223.161 25.1882C222.441 20.797 218.841 18.3971 214.882 18.3971C210.923 18.3971 206.963 20.6438 206.038 25.1882Z" fill="white"></path>
  <path d="M152.254 8.08252L152.254 0.42334L159.967 0.423341L152.254 8.08252Z" fill="white"></path>
  <path d="M24.9388 53.0679L0.257324 53.0679L0.257323 59.1952L24.9388 59.1952L24.9388 53.0679Z" fill="white"></path>
  <path d="M17.2256 66.854L24.9385 59.1948L17.2256 59.1948L17.2256 66.854Z" fill="white"></path>
  <path d="M0.00735855 83.7129L25.4087 83.7129L25.4087 77.5856L0.00735962 77.5855L0.00735855 83.7129Z" fill="white"></path>
  <path d="M7.71296 69.918L-1.33917e-06 77.5771L7.71295 77.5772L7.71296 69.918Z" fill="white"></path>
</svg>
